# xmcd CD database file
#
# Track frame offsets:
#	150
#	12702
#	24662
#	34892
#	45712
#	57780
#	68400
#	78740
#	91275
#	103005
#	114207
#	126330
#	135650
#	149437
#	160782
#	172062
#	186417
#	196100
#	205592
#	215320
#
# Disc length: 3040 seconds
#
# Revision: 2
# Processed by: cddbd v1.5.2PL0 Copyright (c) Steve Scherf et al.
# Submitted via: CDex 1.51
#
DISCID=1c0bde14
DTITLE=Homer and Jethro - The Best of Homer and Jethro
DYEAR=1996
DGENRE=Country
TTITLE0=Nashville Cats
TTITLE1=Act Naturally
TTITLE2=Sixteen Tons
TTITLE3=King of the Camp
TTITLE4=The Battle of Kookamonga
TTITLE5=Settin' the Woods on Fire No. 2
TTITLE6=Gone
TTITLE7=Cold, Cold Heart No. 2
TTITLE8=D-I-V-O-R-C-E (B-A-C-O-N and E-G-G-S)
TTITLE9=Oh Lonesome Me
TTITLE10=Hey Good Lookin' No. 2
TTITLE11=Tiger by the Tail
TTITLE12=El Paso
TTITLE13=Your Clobbered Heart
TTITLE14=He'll Have to Go
TTITLE15=I Really Don't Want to Know
TTITLE16=Lying Time (Crying Time)
TTITLE17=I Want to Go with You
TTITLE18=The Chase is On
TTITLE19=(How Much Is) That Hound Dog in the Window
EXTD=YEAR: 1996
EXTT0=
EXTT1=
EXTT2=
EXTT3=
EXTT4=
EXTT5=
EXTT6=
EXTT7=
EXTT8=
EXTT9=
EXTT10=
EXTT11=
EXTT12=
EXTT13=
EXTT14=
EXTT15=
EXTT16=
EXTT17=
EXTT18=
EXTT19=
PLAYORDER=
